<?xml version="1.0" encoding="UTF-8"?>
<svg id="Layer_2" data-name="Layer 2" xmlns="http://www.w3.org/2000/svg" viewBox="0 0 139.83 139.83">
  <defs>
    <style>
      .cls-1 {
        fill: #58b0e3;
      }

      .cls-2 {
        fill: #5273b8;
      }

      .cls-3 {
        fill: #5fc3ac;
      }

      .cls-4 {
        fill: #ffdb49;
      }

      .cls-5 {
        fill: #fbfcfd;
      }

      .cls-6 {
        fill: #0d1b39;
      }

      .cls-7 {
        fill: #f06e5a;
      }

      .cls-8 {
        fill: #ef4e6d;
      }
    </style>
  </defs>
  <g id="Layer_5" data-name="Layer 5">
    <rect class="cls-6" y="0" width="139.83" height="139.83" rx="10.2" ry="10.2"/>
    <g>
      <path class="cls-1" d="M78.56,48.18c-.88,0-1.6-.72-1.6-1.6v-6.6l-18.02-10.46-15.86,9.1-.08.04-2.98,1.72c-.24.14-.52.22-.8.22-.14,0-.28-.02-.41-.05-.41-.11-.76-.38-.97-.75-.45-.77-.18-1.76.58-2.2l5.62-3.25.09-.05,13.87-8.01c.27-.16.58-.24.9-.24s.62.08.89.24l19.5,11.26c.55.32.89.91.89,1.54v7.48c0,.43-.17.83-.47,1.13-.3.3-.71.47-1.13.47h0Z"/>
      <path class="cls-8" d="M78.56,63.33c-.14,0-.28-.02-.41-.05-.41-.11-.76-.38-.97-.75-.45-.77-.18-1.75.58-2.2l5.71-3.3.05-20.84-15.81-9.18-.08-.05-2.98-1.72c-.37-.21-.64-.56-.75-.97-.11-.41-.06-.85.16-1.22.29-.5.82-.81,1.39-.81.28,0,.56.07.8.22l5.62,3.25.09.06,13.87,8.01c.27.16.5.39.66.66.15.27.24.57.24.89v22.52c0,.63-.34,1.23-.89,1.54l-6.48,3.74c-.24.14-.52.22-.8.22Z"/>
      <path class="cls-4" d="M72.01,74.68c-.31,0-.62-.08-.89-.24l-6.48-3.74c-.37-.21-.64-.56-.75-.97-.11-.41-.05-.85.16-1.22.29-.5.82-.81,1.39-.81.28,0,.56.07.8.21l5.71,3.3,18.07-10.38.05-18.28v-.09s0-3.45,0-3.45c0-.43.17-.83.47-1.13.3-.3.71-.47,1.13-.47.89,0,1.61.72,1.61,1.6v6.6s0,16.02,0,16.02c0,.32-.08.63-.24.9-.15.27-.38.49-.65.65l-19.5,11.26c-.27.16-.58.24-.89.24Z"/>
      <path class="cls-3" d="M72.01,82.26c-.31,0-.62-.08-.89-.24l-19.5-11.26c-.55-.32-.89-.91-.89-1.54v-7.48c0-.43.17-.83.47-1.13.3-.3.7-.47,1.13-.47.89,0,1.61.72,1.61,1.6v6.6l18.02,10.46,15.86-9.1.08-.04,2.98-1.72c.24-.14.52-.22.8-.22.14,0,.28.02.41.05.42.11.76.38.97.75.45.77.18,1.76-.58,2.2l-5.61,3.24-.1.05-13.87,8.01c-.27.16-.58.24-.9.24Z"/>
      <path class="cls-2" d="M65.44,86.06c-.28,0-.56-.07-.8-.22l-5.62-3.25-.09-.06-13.87-8.01c-.27-.16-.5-.39-.66-.66-.15-.27-.24-.57-.24-.89v-22.52c0-.63.34-1.23.89-1.54l6.48-3.74c.24-.14.52-.22.8-.22.14,0,.28.02.41.05.41.11.76.38.97.75.22.38.28.81.17,1.22-.11.41-.38.76-.75.97l-5.71,3.3-.05,20.84,15.81,9.18.08.05,2.98,1.72c.37.21.64.56.75.97.11.41.06.85-.16,1.22-.29.5-.82.81-1.39.81Z"/>
      <path class="cls-7" d="M39.19,70.89c-.88,0-1.6-.72-1.6-1.6v-6.6s0-16.02,0-16.02c0-.32.08-.63.24-.9.15-.27.38-.49.65-.65l19.5-11.26c.27-.16.58-.24.89-.24s.62.08.89.24l6.48,3.74c.37.21.64.56.75.97.11.41.05.85-.16,1.22-.29.5-.82.81-1.39.81-.28,0-.56-.07-.8-.21l-5.71-3.3-18.07,10.38-.05,18.28v.09s0,3.45,0,3.45c0,.43-.17.83-.47,1.13-.3.3-.71.47-1.13.47h0Z"/>
    </g>
    <g>
      <path class="cls-5" d="M22.55,106.94c0-4.83,2.88-8.31,7.88-8.31s7.59,3.39,7.59,8.31c0,.49-.03.81-.11,1.29h-12.2c.26,2.76,2.33,4.32,5.29,4.32,1.96,0,3.51-.4,5.21-1.41l1.15,2.42c-1.78,1.12-3.88,1.7-6.53,1.7-5.41,0-8.29-3.39-8.29-8.31ZM34.98,105.79c-.17-2.76-1.67-4.46-4.55-4.46s-4.63,1.73-4.63,4.46h9.18Z"/>
      <path class="cls-5" d="M40.42,106.94c0-4.95,2.76-8.31,8.29-8.31s8.29,3.37,8.29,8.31-2.76,8.31-8.29,8.31-8.29-3.37-8.29-8.31ZM53.89,106.94c0-3.31-1.55-5.44-5.18-5.44s-5.18,2.13-5.18,5.44,1.52,5.47,5.18,5.47,5.18-2.16,5.18-5.47Z"/>
      <path class="cls-5" d="M60.31,114.91v-15.94h2.59l.23,2.91c1.09-2.27,3.14-3.28,5.52-3.28,2.19,0,4.29,1.12,5.26,3.51,1.01-2.07,2.73-3.51,5.87-3.51,3.83,0,6.39,2.42,6.39,7.28v9.03h-2.96v-9.09c0-2.93-1.44-4.34-4.03-4.34-2.96,0-4.49,2.24-4.49,5.26v8.17h-2.93v-9.09c0-2.93-1.47-4.34-4.03-4.34-2.96,0-4.49,2.24-4.49,5.41v8.03h-2.93Z"/>
      <path class="cls-5" d="M108.34,111.68v2.7c-.37.43-1.3.86-2.5.86-1.44,0-3.19-.66-3.57-3.08-.95,1.55-2.68,3.08-5.41,3.08-4.46,0-7.45-2.88-7.45-8.2s3.22-8.46,7.88-8.46c2.07,0,3.77.66,5.15,1.76l.35-1.38h2.36v11.48c0,1.44.46,1.96,1.55,1.96.55,0,1.04-.17,1.64-.72ZM102.19,106.91v-3.83c-1.18-1.15-2.7-1.7-4.72-1.7-3.25,0-4.95,2.1-4.95,5.67s1.7,5.35,4.75,5.35c3.28,0,4.92-2.27,4.92-5.49Z"/>
    </g>
  </g>
</svg>