<?xml version="1.0" encoding="UTF-8"?>
<svg id="Layer_2" data-name="Layer 2" xmlns="http://www.w3.org/2000/svg" viewBox="0 0 55.71 63.82">
  <defs>
    <style>
      .cls-1 {
        fill: #58b0e3;
      }

      .cls-2 {
        fill: #5273b8;
      }

      .cls-3 {
        fill: #5fc3ac;
      }

      .cls-4 {
        fill: #ffdb49;
      }

      .cls-5 {
        fill: #f06e5a;
      }

      .cls-6 {
        fill: #ef4e6d;
      }
    </style>
  </defs>
  <g id="Layer_5" data-name="Layer 5">
    <g>
      <path class="cls-1" d="M40.97,25.93c-.88,0-1.6-.72-1.6-1.6v-6.6L21.34,7.27l-15.86,9.1-.08.04-2.98,1.72c-.24.14-.52.22-.8.22-.14,0-.28-.02-.41-.05-.41-.11-.76-.38-.97-.75-.45-.77-.18-1.76.58-2.2l5.62-3.25.09-.05,13.87-8.01c.27-.16.58-.24.9-.24s.62.08.89.24l19.5,11.26c.55.32.89.91.89,1.54v7.48c0,.43-.17.83-.47,1.13-.3.3-.71.47-1.13.47h0Z"/>
      <path class="cls-6" d="M40.97,41.09c-.14,0-.28-.02-.41-.05-.41-.11-.76-.38-.97-.75-.45-.77-.18-1.75.58-2.2l5.71-3.3.05-20.84-15.81-9.18-.08-.05-2.98-1.72c-.37-.21-.64-.56-.75-.97-.11-.41-.06-.85.16-1.22.29-.5.82-.81,1.39-.81.28,0,.56.07.8.22l5.62,3.25.09.06,13.87,8.01c.27.16.5.39.66.66.15.27.24.57.24.89v22.52c0,.63-.34,1.23-.89,1.54l-6.48,3.74c-.24.14-.52.22-.8.22Z"/>
      <path class="cls-4" d="M34.42,52.43c-.31,0-.62-.08-.89-.24l-6.48-3.74c-.37-.21-.64-.56-.75-.97-.11-.41-.05-.85.16-1.22.29-.5.82-.81,1.39-.81.28,0,.56.07.8.21l5.71,3.3,18.07-10.38.05-18.28v-.09s0-3.45,0-3.45c0-.43.17-.83.47-1.13.3-.3.71-.47,1.13-.47.89,0,1.61.72,1.61,1.6v6.6s0,16.02,0,16.02c0,.32-.08.63-.24.9-.15.27-.38.49-.65.65l-19.5,11.26c-.27.16-.58.24-.89.24Z"/>
      <path class="cls-3" d="M34.41,60.02c-.31,0-.62-.08-.89-.24l-19.5-11.26c-.55-.32-.89-.91-.89-1.54v-7.48c0-.43.17-.83.47-1.13.3-.3.7-.47,1.13-.47.89,0,1.61.72,1.61,1.6v6.6l18.02,10.46,15.86-9.1.08-.04,2.98-1.72c.24-.14.52-.22.8-.22.14,0,.28.02.41.05.42.11.76.38.97.75.45.77.18,1.76-.58,2.2l-5.61,3.24-.1.05-13.87,8.01c-.27.16-.58.24-.9.24Z"/>
      <path class="cls-2" d="M27.84,63.82c-.28,0-.56-.07-.8-.22l-5.62-3.25-.09-.06-13.87-8.01c-.27-.16-.5-.39-.66-.66-.15-.27-.24-.57-.24-.89v-22.52c0-.63.34-1.23.89-1.54l6.48-3.74c.24-.14.52-.22.8-.22.14,0,.28.02.41.05.41.11.76.38.97.75.22.38.28.81.17,1.22-.11.41-.38.76-.75.97l-5.71,3.3-.05,20.84,15.81,9.18.08.05,2.98,1.72c.37.21.64.56.75.97.11.41.06.85-.16,1.22-.29.5-.82.81-1.39.81Z"/>
      <path class="cls-5" d="M1.6,48.65C.72,48.64,0,47.93,0,47.04v-6.6s0-16.02,0-16.02c0-.32.08-.63.24-.9.15-.27.38-.49.65-.65l19.5-11.26c.27-.16.58-.24.89-.24s.62.08.89.24l6.48,3.74c.37.21.64.56.75.97.11.41.05.85-.16,1.22-.29.5-.82.81-1.39.81-.28,0-.56-.07-.8-.21l-5.71-3.3L3.27,25.22l-.05,18.28v.09s0,3.45,0,3.45c0,.43-.17.83-.47,1.13-.3.3-.71.47-1.13.47h0Z"/>
    </g>
  </g>
</svg>